Coordinates
version=1
nRows=9
nColumns=24
inDegrees=yes

Units are S.I. units (second, meters, Newtons, ...)
Angles are in degrees.

endheader
time	pelvis_tilt	pelvis_list	pelvis_rotation	pelvis_tx	pelvis_ty	pelvis_tz	hip_flexion_r	hip_adduction_r	hip_rotation_r	knee_angle_r	ankle_angle_r	subtalar_angle_r	mtp_angle_r	hip_flexion_l	hip_adduction_l	hip_rotation_l	knee_angle_l	ankle_angle_l	subtalar_angle_l	mtp_angle_l	lumbar_extension	lumbar_bending	lumbar_rotation
      0.46300000	     -3.63342308	      2.38884215	      4.88590433	     -0.75338719	      0.88337797	      0.31481639	     34.94630629	     -2.01447572	     -5.25584071	    -22.53309345	      6.13686737	      2.12218614	      0.71688790	    -13.69951359	      4.01883315	      3.07400385	     -5.91070221	     18.45210511	     -1.71308386	      0.74278367	     -6.00539630	     -3.60072612	     -9.55556024
      0.46716667	     -3.74501315	      2.43950853	      4.94095645	     -0.74775288	      0.88197136	      0.31507768	     35.06189884	     -1.96952201	     -4.88561613	    -22.64468269	      6.09924335	      1.78459214	      4.09544095	    -13.57301649	      4.01824857	      2.99347269	     -6.76039153	     18.80791093	     -1.42625657	      2.86552744	     -5.86250554	     -3.63752391	     -9.50178890
      0.47133333	     -3.82507513	      2.45998908	      4.99990323	     -0.74206804	      0.88067821	      0.31534300	     35.12553667	     -1.89002951	     -4.53531306	    -22.82151459	      6.06171902	      1.40969563	      4.09485785	    -13.52154048	      3.99202043	      3.13698201	     -7.52902159	     19.09169573	     -1.43482472	      2.90950774	     -5.76579701	     -3.61615670	     -9.50901999
      0.47550000	     -3.93846203	      2.48400538	      5.05565619	     -0.73635096	      0.87938156	      0.31565362	     35.22167156	     -1.80840412	     -4.18785657	    -23.07293578	      6.01042086	      1.01902668	      4.10020758	    -13.35360438	      3.96295882	      3.08837774	     -8.46035289	     19.33355485	     -1.22855795	      3.00711425	     -5.60022942	     -3.62120349	     -9.44266304
      0.47966667	     -4.02992262	      2.49725750	      5.09921075	     -0.73059325	      0.87814019	      0.31598379	     35.30575419	     -1.71101141	     -3.86867568	    -23.42909503	      5.96309568	      0.65674600	      4.11240372	    -13.20213929	      3.92325295	      3.05047424	     -9.41320632	     19.58572147	     -1.02216895	      3.14072865	     -5.46924381	     -3.59741105	     -9.34958633
      0.48383333	     -4.09948639	      2.49435096	      5.12684123	     -0.72479396	      0.87698157	      0.31637343	     35.35539033	     -1.57999952	     -3.54001764	    -23.83038501	      5.90327045	      0.30366511	      4.14209080	    -13.03170534	      3.85968778	      2.92897753	    -10.45483273	     19.84936143	     -0.70730384	      3.39963280	     -5.36175671	     -3.55940911	     -9.24537206
      0.48800000	     -4.18219857	      2.48888812	      5.16256497	     -0.71896095	      0.87584802	      0.31675700	     35.43512748	     -1.45647356	     -3.27176744	    -24.33223101	      5.80694744	     -0.08804202	      4.19810743	    -12.82988191	      3.79453028	      2.85202585	    -11.52662353	     20.02758691	     -0.46005543	      3.86165186	     -5.23174373	     -3.50698837	     -9.11832022
      0.49216667	     -4.26974414	      2.48160697	      5.18643204	     -0.71311207	      0.87476422	      0.31718056	     35.51501463	     -1.31892223	     -2.98857807	    -24.87262503	      5.69697473	     -0.47289036	      4.28362999	    -12.59280748	      3.73145945	      2.77796078	    -12.66243256	     20.13412115	     -0.27508596	      4.54307320	     -5.09271263	     -3.46332277	     -8.97358013
      0.49633333	     -4.36620278	      2.48610005	      5.22664636	     -0.70725306	      0.87374884	      0.31756335	     35.60998488	     -1.20869357	     -2.74984109	    -25.47885102	      5.59648488	     -0.81863641	      4.29616051	    -12.35848175	      3.70154866	      2.92161359	    -13.76742514	     20.12524518	     -0.40523799	      4.66873185	     -4.94590016	     -3.42771296	     -8.87005729
